PathFileType	4	(X/Y/Z)	Apose_0-50.trc
DataRate	CameraRate	NumFrames	NumMarkers	Units	OrigDataRate	OrigDataStartFrame	OrigNumFrames
30	30	5	22	m	30	0	50
Frame#	Time	Hip			RHip			RKnee			RAnkle			RBigToe			RSmallToe			RHeel			LHip			LKnee			LAnkle			LBigToe			LSmallToe			LHeel			Neck			Head			Nose			RShoulder			RElbow			RWrist			LShoulder			LElbow			LWrist		
		X1	Y1	Z1	X2	Y2	Z2	X3	Y3	Z3	X4	Y4	Z4	X5	Y5	Z5	X6	Y6	Z6	X7	Y7	Z7	X8	Y8	Z8	X9	Y9	Z9	X10	Y10	Z10	X11	Y11	Z11	X12	Y12	Z12	X13	Y13	Z13	X14	Y14	Z14	X15	Y15	Z15	X16	Y16	Z16	X17	Y17	Z17	X18	Y18	Z18	X19	Y19	Z19	X20	Y20	Z20	X21	Y21	Z21	X22	Y22	Z22
1	0.03333333333333333	0.060311341236056665	0.9175857006598973	0.3688171127472211	0.052581393110919986	0.8942630188675783	0.48109053238171523	0.018497758803924295	0.5022214746102798	0.499541043899988	-0.0012422964531670004	0.10283724279225534	0.5117537391029519	0.20118113954849043	0.029260231625138335	0.5467899347044334	0.1490581202807559	0.018354070475311873	0.6064029968402644	-0.05051728935162759	0.026030963145549414	0.5006458493897735	0.0526952317683744	0.8921444687340339	0.25652276223725207	0.04179170442722256	0.4958043969906303	0.2207405173167481	0.0073357519426693486	0.12234366197931651	0.20889546637742384	0.20355674772990576	0.03380764920622154	0.18812142373567592	0.15903275369362888	0.029424102402671595	0.12914168185709024	-0.057977020752129314	0.028518288211810662	0.20499060718340986	0.05615528240906934	1.573566553661561	0.35664449115779545	0.16508554421265975	1.8317441320437666	0.3461996229166969	0.20778872020719322	1.6574865225815372	0.3302319527842863	0.03721909667312978	1.4836475321571667	0.5569707110673894	0.10099175383973269	1.235538413491774	0.7270367473680607	0.18008778111483215	1.0369257454820329	0.8936794356446847	-0.0014536380660085354	1.467929649990996	0.16747341001224025	0.017728413897927276	1.230906844262563	0.018195848027019883	0.08600683228183659	1.0242120309532603	-0.13434890224430618
2	0.06666666666666667	0.06028625102942799	0.9197941683477351	0.37065112114035	0.05540352865280272	0.8923536012501936	0.48040543068009295	0.018879991925347447	0.5028673066174838	0.503597539521201	-0.006338529254839842	0.1053840121421927	0.5181051218386515	0.20211361861695126	0.03599156314584188	0.5550358448785684	0.1450541662668237	0.02741587013710453	0.6159379039685995	-0.0526091813816058	0.0353787976088375	0.5045362732893629	0.05548106304700731	0.8894232994293333	0.2582119031267412	0.027581867071858005	0.505117185261315	0.23216481931159855	0.00737519347493199	0.1239064780179132	0.2130471813826564	0.20543636565742399	0.03736342473509381	0.19175487056308646	0.15548918567646838	0.0345086662134398	0.12845868614630906	-0.05909602532914262	0.03223202861670029	0.20584840867545756	0.04856633378650983	1.5735954064601927	0.36093336048252167	0.15712832141233027	1.8127898566786869	0.3283900682688833	0.28011568920306257	1.6658727148980281	0.34241117651191716	0.03507669836532012	1.483395031475446	0.5572397462419296	0.10299279780810301	1.2333494125365256	0.7282607312106393	0.18321926419686604	1.0341400235491196	0.8947112683669592	0.0027377308005975985	1.4687786312476525	0.16488620061903456	0.02111890478044097	1.2267804940636462	0.017540540389826272	0.08754170477450886	1.0191216409929296	-0.1349864370394911
3	0.1	0.050067456960522644	0.9190424751954135	0.3675366486821762	0.04526373116864088	0.8906369274237286	0.4771562460027476	0.012745883900075765	0.5060429450620596	0.5013836830259163	-0.006915920187859096	0.10431554454417005	0.5182918941086091	0.2066346156598585	0.039739538649256514	0.564088242703657	0.14862383200100043	0.01852387076196819	0.6238097925532593	-0.04012208825534632	0.03633968164438485	0.4946262810808542	0.04615774299044363	0.8877911385695599	0.25510149643482594	0.023072486509947997	0.5090901660205335	0.22981285201065124	0.003460697242163605	0.12354067100906947	0.21436258455301954	0.21248295938747694	0.03873304330841761	0.18609436362716772	0.165035505096422	0.03913680150736359	0.1292356079167053	-0.03249365890601001	0.04760220540667611	0.2256041295030661	0.06067205604561349	1.5678976741922457	0.36210609272221883	0.2075232798681111	1.7857302155976962	0.3253529051642746	0.310136734431337	1.6328726563451912	0.3500852255867635	0.03602235757141881	1.484603384083071	0.5533710470502651	0.09500772271984602	1.2365952489285714	0.7258047620622329	0.1740518405601144	1.0321222244793926	0.8893044648798296	0.010141549272077974	1.4724762005923389	0.1611216433826791	0.01860187722972034	1.2266178639491012	0.009115012881325357	0.07006369732389843	1.0117045502459434	-0.14200206286608233
4	0.13333333333333333	0.04636569813083217	0.9190800888758316	0.36474435449050036	0.038982031613827454	0.8893106847488869	0.47591109080670596	0.010183705290855067	0.5044329345999642	0.502004897817039	-0.00923242505893492	0.10540107643011952	0.5188503237412095	0.20821799766561871	0.040629171840806444	0.566049942741883	0.15267629421836723	0.030977811061618107	0.616637509158401	-0.04216313043102542	0.03589869153969216	0.497307672103781	0.040589517401159333	0.8860662694010041	0.2544951721556249	0.022326240314052025	0.5099272629886658	0.22870557093915345	0.007491417062228472	0.10961327291700232	0.21119441711943668	0.2141678930403821	0.0367431395327998	0.18467060043075476	0.16576729057313333	0.038678132399763546	0.1313489909655154	-0.03161411749360955	0.04548143342220119	0.2292418309277391	0.06454317341929058	1.5677911284455708	0.36106136658449806	0.22572780074923274	1.7738663826817453	0.32292715702946745	0.3242603703733306	1.6214807754816492	0.349763895765296	0.0351161126178141	1.4857128293903274	0.5498116001615224	0.0928863634753241	1.237618990988297	0.7258979617084662	0.15120898789185264	1.041179607656042	0.8988131079437652	0.01308191643021515	1.4741994311641466	0.15529752782103104	0.011637251514282333	1.2261479142890148	0.008366902245817754	0.061328537636203634	1.01288045097705	-0.1423242000771147
5	0.16666666666666666	0.044133956146226845	0.9191189866969924	0.3627182341326145	0.035523376004269795	0.8915656071714281	0.47522081467181404	0.008204960728222802	0.5050172087453522	0.5006282413641089	-0.009400914945802075	0.10590814506640782	0.5204211334116561	0.20787231564441824	0.039956555277237155	0.5664935419375635	0.15452459661833817	0.03198109325062615	0.6188567577813378	-0.04395546371654442	0.035048207096752826	0.49805214333406284	0.035361379384351216	0.8890682762368667	0.25083353797438057	0.041093860483487524	0.512125357295078	0.22601484148478918	0.004457405302270091	0.11970379083053014	0.21352760319546396	0.21395092725409126	0.03673270631664597	0.18281078534928408	0.16658333245911	0.035762129195168905	0.13196754677593012	-0.033106230489716365	0.04189767452509284	0.2278870569077339	0.0670803094804856	1.5624735790354762	0.3603560022980145	0.23975861590583147	1.7733399028700174	0.3232441316479556	0.32935209585150677	1.6173564125532205	0.351911043596421	0.03706104116695861	1.48867001989477	0.5500418452308248	0.08568894161473611	1.2277528464049556	0.7294704318748427	0.14413539275357648	1.043748375647733	0.8987734037046485	0.015569426176069401	1.4761945894245923	0.15497294416068352	0.008887275754144768	1.230465115440404	0.007529122525928823	0.05747335284590906	1.0137374678218423	-0.14298807970192076
